<svg xmlns="http://www.w3.org/2000/svg" viewBox="0 0 418.06 168"><title>truck</title><path d="M752.5,576.5v-97l2-11h-56l-62,62v51h-14v20h31.58s4.42-23,29.42-23c23,0,28.26,23,28.26,23h170.7s5-19,27-19c20,0,26.83,19,26.83,19h16s7.17-19,27.17-19,26.83,19,26.83,19h19.17v-25Zm-20-17H653V535l50.5-50.5h29Z" transform="translate(-622 -468)" style="stroke:#000;stroke-miterlimit:10"/><path d="M779.5,468.5v100h248l12-100Zm33,85h-9v-71h9Zm41.75,0h-9v-71h9Zm41.75,0h-9v-71h9Zm41.75,0h-9v-71h9Zm41.75,0h-9v-71h9Z" transform="translate(-622 -468)" style="stroke:#000;stroke-miterlimit:10"/><circle cx="60.5" cy="140.5" r="24" style="stroke:#000;stroke-miterlimit:10"/><circle cx="357.5" cy="143.5" r="24" style="stroke:#000;stroke-miterlimit:10"/><circle cx="287.5" cy="143.5" r="24" style="stroke:#000;stroke-miterlimit:10"/></svg>